<?xml version="1.0" encoding="utf-8"?>
<!-- Generator: Adobe Illustrator 22.1.0, SVG Export Plug-In . SVG Version: 6.00 Build 0)  -->
<svg version="1.1" id="Layer_1" xmlns:sketch="http://www.bohemiancoding.com/sketch/ns"
	 xmlns="http://www.w3.org/2000/svg" xmlns:xlink="http://www.w3.org/1999/xlink" x="0px" y="0px" viewBox="0 0 30 37.5"
	 style="enable-background:new 0 0 30 37.5;" xml:space="preserve">
<title>arrow_035-down-bottom-download-direction</title>
<desc>Created with Sketch.</desc>
<g sketch:type="MSPage">
	<g transform="translate(-135.000000, -225.000000)" sketch:type="MSArtboardGroup">
		<path sketch:type="MSShapeGroup" d="M163,240c0-7.2-5.8-13-13-13s-13,5.8-13,13s5.8,13,13,13S163,247.2,163,240z M152,232.5v8.6
			l1.9-1.9c0.2-0.2,0.5-0.2,0.7,0l2.1,2.1c0.2,0.2,0.2,0.5,0,0.7l-6.4,6.4c-0.2,0.2-0.5,0.2-0.7,0l-6.4-6.4c-0.2-0.2-0.2-0.5,0-0.7
			l2.1-2.1c0.2-0.2,0.5-0.2,0.7,0l1.9,1.9v-8.6c0-0.3,0.2-0.5,0.5-0.5h3C151.8,232,152,232.2,152,232.5z"/>
	</g>
</g>
</svg>
