<?xml version="1.0" encoding="UTF-8"?>
<svg viewBox="0 0 30 37.5" version="1.1" xmlns="http://www.w3.org/2000/svg" xmlns:xlink="http://www.w3.org/1999/xlink">
    <!-- Generator: Sketch 49.3 (51167) - http://www.bohemiancoding.com/sketch -->
    <title>arrow-up</title>
    <desc>Created with Sketch.</desc>
    <defs></defs>
    <g id="Page-1" stroke="none" stroke-width="1" fill="none" fill-rule="evenodd">
        <g id="arrow-up" transform="translate(13.000000, 13.000000) rotate(-180.000000) translate(-13.000000, -13.000000) " fill="#000000" fill-rule="nonzero">
            <path d="M26,13 C26,5.8 20.2,0 13,0 C5.8,0 0,5.8 0,13 C0,20.2 5.8,26 13,26 C20.2,26 26,20.2 26,13 Z M15,5.5 L15,14.1 L16.9,12.2 C17.1,12 17.4,12 17.6,12.2 L19.7,14.3 C19.9,14.5 19.9,14.8 19.7,15 L13.3,21.4 C13.1,21.6 12.8,21.6 12.6,21.4 L6.2,15 C6,14.8 6,14.5 6.2,14.3 L8.3,12.2 C8.5,12 8.8,12 9,12.2 L10.9,14.1 L10.9,5.5 C10.9,5.2 11.1,5 11.4,5 L14.4,5 C14.8,5 15,5.2 15,5.5 Z" id="Shape"></path>
        </g>
    </g>
</svg>
