<?xml version="1.0" encoding="utf-8"?>
<!-- Generator: Adobe Illustrator 22.1.0, SVG Export Plug-In . SVG Version: 6.00 Build 0)  -->
<svg version="1.1" id="Layer_1" xmlns="http://www.w3.org/2000/svg" xmlns:xlink="http://www.w3.org/1999/xlink" x="0px" y="0px"
	 viewBox="0 0 85.8 107.3" style="enable-background:new 0 0 85.8 107.3;" xml:space="preserve">
<style type="text/css">
	.st0{fill:#CD2026;}
</style>
<g>
	<path class="st0" d="M70.7,14.1c-15.6-15.6-40.9-15.6-56.6,0C-1.5,29.7-1.5,55,14.1,70.7c15.6,15.6,40.9,15.6,56.6,0
		C86.3,55.1,86.3,29.7,70.7,14.1z M54.9,59.3L42.4,46.8L29.9,59.3c-1.2,1.2-3.2,1.2-4.4,0c-1.2-1.2-1.2-3.2,0-4.4L38,42.4L25.5,29.9
		c-1.2-1.2-1.2-3.2,0-4.4c1.2-1.2,3.2-1.2,4.4,0L42.4,38l12.5-12.5c1.2-1.2,3.2-1.2,4.4,0s1.2,3.2,0,4.4L46.8,42.4l12.5,12.5
		c1.2,1.2,1.2,3.2,0,4.4S56.1,60.5,54.9,59.3z"/>
</g>
</svg>
