<?xml version="1.0" encoding="utf-8"?>
<!-- Generator: Adobe Illustrator 22.1.0, SVG Export Plug-In . SVG Version: 6.00 Build 0)  -->
<svg version="1.1"
	 id="Layer_1" xmlns:cc="http://creativecommons.org/ns#" xmlns:dc="http://purl.org/dc/elements/1.1/" xmlns:inkscape="http://www.inkscape.org/namespaces/inkscape" xmlns:rdf="http://www.w3.org/1999/02/22-rdf-syntax-ns#" xmlns:sodipodi="http://sodipodi.sourceforge.net/DTD/sodipodi-0.dtd" xmlns:svg="http://www.w3.org/2000/svg"
	 xmlns="http://www.w3.org/2000/svg" xmlns:xlink="http://www.w3.org/1999/xlink" x="0px" y="0px" viewBox="0 0 32 40"
	 style="enable-background:new 0 0 32 40;" xml:space="preserve">
<style type="text/css">
	.st0{display:none;}
	.st1{display:inline;fill:#FFFFFF;}
	.st2{fill:#2E8540;}
</style>
<g transform="translate(0,-16)" class="st0">
	<rect class="st1" width="48" height="48"/>
	<rect x="-47" class="st1" width="48" height="48"/>
	<rect x="-103" class="st1" width="48" height="48"/>
	<rect y="57.6" class="st1" width="48" height="48"/>
	<rect x="-47" y="57.6" class="st1" width="48" height="48"/>
	<rect x="-103" y="57.6" class="st1" width="48" height="48"/>
	<rect y="117.6" class="st1" width="48" height="48"/>
	<rect x="-47" y="117.6" class="st1" width="48" height="48"/>
	<rect x="-103" y="117.6" class="st1" width="48" height="48"/>
	<rect y="173.6" class="st1" width="48" height="48"/>
	<rect x="-47" y="173.6" class="st1" width="48" height="48"/>
	<rect x="-103" y="173.6" class="st1" width="48" height="48"/>
	<rect y="231.6" class="st1" width="48" height="48"/>
	<rect x="-47" y="231.6" class="st1" width="48" height="48"/>
	<rect x="-103" y="231.6" class="st1" width="48" height="48"/>
</g>
<path class="st2" d="M16,5C9.9,5,5,9.9,5,16s4.9,11,11,11s11-4.9,11-11S22.1,5,16,5z M20,12.7c0.5,0,0.7,0.5,0.4,0.9l-5.6,5.7
	c-0.2,0.2-0.5,0.2-0.7,0l-2.4-2.4c-0.5-0.5,0.2-1.2,0.7-0.7l2.1,2.1l5.3-5.3C19.7,12.7,19.9,12.7,20,12.7z"/>
</svg>
