<svg xmlns="http://www.w3.org/2000/svg" viewBox="0 0 134 140.361">
  <defs>
    <style>
      .cls-1 {
        fill: #0484ad;
      }
    </style>
  </defs>
  <g id="Group_38" data-name="Group 38" transform="translate(0.008 -952.4)">
    <path id="Path_234" data-name="Path 234" class="cls-1" d="M54.529,952.4a5.027,5.027,0,0,0-4.518,3.739l-2.493,14.021a54.376,54.376,0,0,0-14.955,8.412l-13.242-5.141a5.177,5.177,0,0,0-5.764,1.87L.628,996.643a4.956,4.956,0,0,0,.935,5.92L12,1011.909a56.693,56.693,0,0,0-1.09,10.593A59.572,59.572,0,0,0,12,1033.1l-10.438,9.347a4.745,4.745,0,0,0-.935,5.92l12.93,21.342a4.886,4.886,0,0,0,5.764,1.869l13.242-4.985a53.932,53.932,0,0,0,14.955,8.257l2.493,14.021a4.667,4.667,0,0,0,4.518,3.894H79.454a4.969,4.969,0,0,0,4.674-3.894l2.493-14.021a58.254,58.254,0,0,0,14.955-8.257l13.242,4.985a4.675,4.675,0,0,0,5.608-1.869l12.93-21.342a4.744,4.744,0,0,0-.935-5.92l-10.437-9.347a52,52,0,0,0,0-21.187l10.437-9.347a4.957,4.957,0,0,0,.935-5.92L120.425,975.3a4.675,4.675,0,0,0-5.608-1.87l-13.242,5.141a54.385,54.385,0,0,0-14.955-8.412l-2.493-14.021a4.825,4.825,0,0,0-4.674-3.739Zm3.895,9.347H75.56L77.9,974.21a4.535,4.535,0,0,0,3.271,3.583,47.882,47.882,0,0,1,16.669,9.5,4.845,4.845,0,0,0,4.829.779l11.84-4.518,8.88,14.644-9.5,8.413a4.7,4.7,0,0,0-1.4,4.673,44.238,44.238,0,0,1,1.246,11.216,52.644,52.644,0,0,1-1.246,11.217,4.534,4.534,0,0,0,1.4,4.518l9.5,8.568-9.035,14.644-11.84-4.518a4.966,4.966,0,0,0-4.829.779,47.882,47.882,0,0,1-16.669,9.5,4.786,4.786,0,0,0-3.271,3.583L75.4,1083.414H58.268L55.931,1070.8a4.535,4.535,0,0,0-3.271-3.583,47.882,47.882,0,0,1-16.669-9.5,4.843,4.843,0,0,0-4.829-.779l-12,4.518-8.88-14.644,9.5-8.412a4.534,4.534,0,0,0,1.4-4.518,45.568,45.568,0,0,1,0-22.433,4.8,4.8,0,0,0-1.4-4.673l-9.5-8.412,8.88-14.644,11.84,4.518a4.967,4.967,0,0,0,4.829-.779,47.884,47.884,0,0,1,16.669-9.5,4.787,4.787,0,0,0,3.271-3.583C56.243,974.21,58.424,961.747,58.424,961.747Zm8.568,24.926a35.83,35.83,0,1,0,35.83,35.83,35.835,35.835,0,0,0-35.83-35.83Zm0,9.347A26.483,26.483,0,1,1,40.508,1022.5,26.461,26.461,0,0,1,66.992,996.019Z" transform="translate(0 0)"/>
  </g>
</svg>
