<svg xmlns="http://www.w3.org/2000/svg" viewBox="0 0 64.46 81.172"><defs><style>.a{fill:#0071bc;}</style></defs><path class="a" d="M57.3,27.813h-.6V24.471a24.471,24.471,0,1,0-48.942,0v3.342h-.6A7.183,7.183,0,0,0,0,34.976V74.01a7.183,7.183,0,0,0,7.162,7.162H57.3A7.183,7.183,0,0,0,64.46,74.01V34.976A7.183,7.183,0,0,0,57.3,27.813ZM12.534,24.471a19.7,19.7,0,1,1,39.392,0v3.342H12.534ZM59.685,74.01A2.394,2.394,0,0,1,57.3,76.4H7.162A2.394,2.394,0,0,1,4.775,74.01V34.976a2.394,2.394,0,0,1,2.387-2.387H57.3a2.394,2.394,0,0,1,2.387,2.387Z"/></svg>