<svg xmlns="http://www.w3.org/2000/svg" viewBox="0 0 94.866 80.772"><defs><style>.a{fill:#0071bc;}</style></defs><g transform="translate(0)"><path class="a" d="M92.733,44.559A9.975,9.975,0,0,0,94.787,38.4a8.926,8.926,0,0,0-4.739-7.82,8.344,8.344,0,0,0-4.107-1.027H63.27l.237-1.343a76.854,76.854,0,0,0,1.264-17.536V10.2a11.985,11.985,0,0,0-3.4-7.741A7.542,7.542,0,0,0,54.187.246a7.448,7.448,0,0,0-2.37.948l-3.239,1.9v7.583a24.757,24.757,0,0,1-1.9,9.479,24.244,24.244,0,0,1-5.45,8.057L35.466,33.9V30.657H0V80.815H35.466v-4.9a29.667,29.667,0,0,0,9.795,1.659H79.937a8.192,8.192,0,0,0,8.215-8.136v-.316l.79-.632a9.63,9.63,0,0,0,3.87-7.346,9.082,9.082,0,0,0-.632-3.87l-.158-.474a8.836,8.836,0,0,0,2.844-6.556A9.012,9.012,0,0,0,92.733,44.559ZM3.949,76.786V34.527h9.084V76.786Zm27.567,0H16.983V34.527H31.517V76.786ZM89.574,47.007a4.744,4.744,0,0,1,1.264,3.239,4.875,4.875,0,0,1-1.817,3.791L87.2,55.459l1.264,3.16a5.657,5.657,0,0,1-1.9,6.635L84.2,67.071v2.291a4.231,4.231,0,0,1-4.265,4.186H45.261a26.043,26.043,0,0,1-9.795-1.9V39.425L44,30.894a29.951,29.951,0,0,0,6.319-9.321,28.987,28.987,0,0,0,2.212-10.979V5.3l1.264-.79a3.724,3.724,0,0,1,1.185-.474,3.908,3.908,0,0,1,3.555,1.185,7.811,7.811,0,0,1,2.212,5.134v.474A74.055,74.055,0,0,1,59.558,27.5l-1.106,6H85.94a4.458,4.458,0,0,1,2.37.632,4.99,4.99,0,0,1,2.607,4.344A5.9,5.9,0,0,1,89.1,42.821l-1.738,1.738Z" transform="translate(0 -0.043)"/><path class="a" d="M29.234,82.8A3.624,3.624,0,0,0,25.6,86.434a3.634,3.634,0,0,0,7.267,0A3.624,3.624,0,0,0,29.234,82.8Zm0,4.9A1.264,1.264,0,1,1,30.5,86.434,1.248,1.248,0,0,1,29.234,87.7Z" transform="translate(-5.379 -17.431)"/></g></svg>