<?xml version="1.0" encoding="utf-8"?>
<!-- Generator: Adobe Illustrator 23.0.1, SVG Export Plug-In . SVG Version: 6.00 Build 0)  -->
<svg version="1.1" xmlns="http://www.w3.org/2000/svg" xmlns:xlink="http://www.w3.org/1999/xlink" x="0px" y="0px"
	 viewBox="0 0 91.7 46" style="enable-background:new 0 0 91.7 46;" xml:space="preserve">
<style type="text/css">
	.st0{display:none;}
	.st1{display:inline;}
	.st2{fill:#046B99;}
</style>
<g id="individual" class="st0">
	<g class="st1">
		<path class="st2" d="M54.4,24c-2.1,1.7-4.9,2.7-7.9,2.7h-1.2c-3,0-5.6-1-7.9-2.7c-7.1,1.2-12.5,7.3-12.5,14.7
			c0,4,9.3,7.3,20.9,7.3s20.9-3.3,20.9-7.3C66.9,31.3,61.5,25.2,54.4,24z"/>
		<path class="st2" d="M42,23.1c1.2,0.5,2.5,0.8,3.9,0.8c1.4,0,2.7-0.3,3.9-1c4.2-2,7.2-7,7.2-11.8C57.1,5,52.1,0,46,0
			S34.8,5,34.8,11.2C34.8,16,37.8,21,42,23.1z"/>
	</g>
</g>
<g id="money" class="st0">
	<g class="st1">
		<path class="st2" d="M10,15.8h18.6c0.8,0,1.4-0.6,1.4-1.4c0-0.8-0.6-1.4-1.4-1.4H10c-0.8,0-1.4,0.6-1.4,1.4
			C8.6,15.2,9.2,15.8,10,15.8z"/>
		<path class="st2" d="M28.7,24.4H12.9c-0.8,0-1.4,0.6-1.4,1.4c0,0.8,0.6,1.4,1.4,1.4h15.8c0.8,0,1.4-0.6,1.4-1.4
			C30.1,25.1,29.5,24.4,28.7,24.4z"/>
		<path class="st2" d="M4.3,21.6h24.4c0.8,0,1.4-0.6,1.4-1.4c0-0.8-0.6-1.4-1.4-1.4H4.3c-0.8,0-1.4,0.6-1.4,1.4
			C2.9,20.9,3.5,21.6,4.3,21.6z"/>
		<path class="st2" d="M30.1,31.6c0-0.8-0.6-1.4-1.4-1.4H1.4c-0.8,0-1.4,0.6-1.4,1.4C0,32.4,0.6,33,1.4,33h27.2
			C29.5,33,30.1,32.4,30.1,31.6z"/>
		<path class="st2" d="M37,39.5h50.6c2.2,0,4.1-1.9,4.1-4.2V10.7c0-2.3-1.8-4.2-4.1-4.2H37c-2.2,0-4.1,1.9-4.1,4.2v24.7
			C33,37.6,34.8,39.5,37,39.5z M35.8,10.7c0-0.7,0.6-1.3,1.2-1.3h50.6c0.6,0,1.2,0.6,1.2,1.3v24.7c0,0.7-0.6,1.3-1.2,1.3H37
			c-0.6,0-1.2-0.6-1.2-1.3V10.7z"/>
		<path class="st2" d="M62.3,33.7C68.2,33.7,73,28.9,73,23s-4.8-10.7-10.7-10.7S51.7,17.1,51.7,23S56.5,33.7,62.3,33.7z M62.3,15.2
			c4.3,0,7.8,3.5,7.8,7.8s-3.5,7.8-7.8,7.8s-7.8-3.5-7.8-7.8S58,15.2,62.3,15.2z"/>
		<path class="st2" d="M39.3,30.3c0.4,0.3,0.8,0.4,1.2,0.3c0,0,1.1-0.2,2.1,0.4c0.7,0.4,1.2,1.3,1.5,2.4c0.1,0.6,0.7,1.1,1.4,1.1
			h1.8c0.8,0,1.4-0.6,1.4-1.4s-0.6-1.4-1.4-1.4h-0.7c-0.5-1.4-1.4-2.4-2.4-3.1c-0.9-0.6-1.8-0.8-2.6-0.8v-9.3
			c0.8-0.1,1.6-0.3,2.6-0.8c1.1-0.7,1.9-1.7,2.4-3.1h0.7c0.8,0,1.4-0.6,1.4-1.4s-0.6-1.4-1.4-1.4h-1.8c-0.6,0-1.2,0.4-1.4,1.1
			c-0.7,3.2-2.9,2.9-3.7,2.8c-0.4-0.1-0.9,0-1.2,0.3c-0.4,0.3-0.6,0.7-0.6,1.1v12.3C38.7,29.6,38.9,30,39.3,30.3z"/>
		<path class="st2" d="M59.8,26.1c0.4,0.6,0.9,1.1,1.8,1.1v0.4c0,0.4,0.4,0.6,0.7,0.6c0.4,0,0.7-0.3,0.7-0.6v-0.4
			c0.5-0.1,0.8-0.2,1.2-0.5c0.5-0.4,0.9-0.9,1-1.5c0.1-1.2-0.5-2.2-1.6-2.6c-0.2-0.1-0.4-0.1-0.6-0.2v-2.4c0.2,0.1,0.3,0.1,0.4,0.3
			c0.3,0.2,0.5,0.6,0.6,0.9c0.1,0.3,0.3,0.5,0.6,0.6c0.3,0.1,0.6-0.1,0.6-0.4c0.1-0.4-0.1-0.9-0.4-1.4c-0.2-0.3-0.5-0.6-0.8-0.8
			c-0.4-0.2-0.6-0.4-1-0.4v-0.6c0-0.4-0.4-0.6-0.7-0.6c-0.4,0-0.7,0.3-0.7,0.6v0.6c-0.1,0-0.1,0.1-0.1,0.1c-0.9,0.2-1.6,0.8-1.9,1.7
			c-0.1,0.6-0.1,1.4,0.4,1.9s1,0.7,1.6,0.9V26c-0.4-0.1-0.6-0.4-0.7-0.6c-0.2-0.3-0.3-0.6-0.5-0.9c-0.2-0.3-0.7-0.4-0.9,0
			c-0.1,0.3-0.1,0.7,0.1,1C59.5,25.7,59.7,25.9,59.8,26.1z M63.1,23.7c0.1,0,0.1,0.1,0.2,0.1c0.7,0.3,1.1,1.1,0.6,1.8
			c-0.2,0.3-0.4,0.4-0.7,0.5L63.1,23.7L63.1,23.7z M60.8,21.6c-0.4-0.6,0.2-1.2,0.7-1.4v2C61.3,22.1,61.1,21.9,60.8,21.6z"/>
		<path class="st2" d="M80.5,28.5c-1.1,0.7-1.9,1.7-2.4,3.1h-0.7c-0.8,0-1.4,0.6-1.4,1.4s0.6,1.4,1.4,1.4h1.8c0.6,0,1.2-0.4,1.4-1.1
			c0.7-3.2,2.9-2.9,3.7-2.8c0.4,0.1,0.9,0,1.2-0.3c0.4-0.3,0.6-0.7,0.6-1.1V16.8c0-0.4-0.2-0.9-0.6-1.1c-0.4-0.3-0.8-0.4-1.2-0.3
			c-0.6,0.1-2.9,0.4-3.7-2.8c-0.1-0.6-0.7-1.1-1.4-1.1h-1.8c-0.8,0-1.4,0.6-1.4,1.4c0,0.8,0.6,1.4,1.4,1.4h0.7
			c0.5,1.4,1.4,2.4,2.4,3.1c0.9,0.6,1.8,0.8,2.6,0.8v9.3C82.3,27.7,81.5,27.9,80.5,28.5z"/>
	</g>
</g>
<g id="family">
	<g>
		<circle class="st2" cx="75.2" cy="4.1" r="4.1"/>
		<path class="st2" d="M85.8,21.7L80.1,9.2L80,9.1l0,0h-9.6l-0.1,0.1l-5.7,12.5c-0.3,0.8,0,1.7,0.8,2c0.8,0.3,1.7,0,2-0.8l4.1-9.7
			l0,0l-3.8,16.9h0.2h3.3c0,0.1,0,0.1,0,0.2v14c0,0.8,0.7,1.5,1.5,1.5c0,0,0,0,0.1,0c0,0,0,0,0.1,0c0.8,0,1.5-0.7,1.5-1.5l0.6-14
			c0-0.1,0-0.1,0-0.2h0.7c0,0.1,0,0.1,0,0.2l0.6,14c0,0.8,0.7,1.5,1.5,1.5c0,0,0,0,0.1,0c0,0,0,0,0.1,0c0.8,0,1.5-0.7,1.5-1.5v-14
			c0-0.1,0-0.1,0-0.2h3.3l0,0h0.1l-4-16.9l0,0l4.1,9.7c0.3,0.8,1.2,1.1,2,0.8C85.7,23.4,86.1,22.5,85.8,21.7z"/>
		<circle class="st2" cx="37.2" cy="4.1" r="4.1"/>
		<path class="st2" d="M48.7,21.9l-4.9-11.7c-0.2-0.6-0.8-0.9-1.3-0.9l0,0h-0.1H32.1H32l0,0c-0.6,0-1.1,0.4-1.3,0.9l-4.9,11.7
			c-0.3,0.8,0,1.6,0.8,2c0.1,0,0.1,0,0.2,0.1l0.8,9h-7.1h-2.8H5.9c0,5.7,5.3,10.4,11.8,10.4S29.5,38.8,29.5,33h-1.2l-0.8-9
			c0.4-0.1,0.8-0.4,1-0.9l3.4-6.9v12.9c0,0,0,0,0,0.1v15.2c0,0.8,0.7,1.5,1.5,1.5l0,0l0,0c0.8,0,1.5-0.7,1.5-1.5l1.2-15.2
			c0,0,0,0,0-0.1H38c0,0,0,0,0,0.1l1.2,15.2c0,0.8,0.7,1.5,1.5,1.5l0,0l0,0c0.8,0,1.5-0.7,1.5-1.5V29.1c0,0,0,0,0-0.1V16.1l3.4,6.9
			c0.3,0.8,1.2,1.1,2,0.8C48.6,23.5,49,22.6,48.7,21.9z"/>
		<path class="st2" d="M59.7,20L59.7,20h-6.8v0.1l-4,8.8c-0.2,0.5,0,1.2,0.6,1.4c0.5,0.2,1.2,0,1.4-0.6l2.9-6.8l0,0l-2.6,11.8h0.1
			h2.3v0.1v9.9c0,0.6,0.5,1.1,1.1,1.1l0,0l0,0c0.6,0,1.1-0.5,1.1-1.1l0.4-9.9v-0.1h0.5v0.1l0.4,9.9c0,0.6,0.5,1.1,1.1,1.1l0,0l0,0
			c0.6,0,1.1-0.5,1.1-1.1v-9.9v-0.1h2.3h0.1l-2.9-11.8l0,0l2.9,6.8c0.2,0.5,0.8,0.8,1.4,0.6c0.5-0.2,0.8-0.8,0.6-1.4L59.7,20z"/>
		<circle class="st2" cx="56.3" cy="15.5" r="3.5"/>
		<path class="st2" d="M16.6,22.5c-5.7,0-10.3,4.3-10.7,9.7h10.7V22.5z"/>
		<circle class="st2" cx="9.5" cy="43.6" r="2.2"/>
		<circle class="st2" cx="25.9" cy="43.6" r="2.2"/>
	</g>
</g>
</svg>
