<?xml version="1.0" encoding="utf-8"?>
<!-- Generator: Adobe Illustrator 22.1.0, SVG Export Plug-In . SVG Version: 6.00 Build 0)  -->
<svg version="1.1" id="Layer_1" xmlns="http://www.w3.org/2000/svg" xmlns:xlink="http://www.w3.org/1999/xlink" x="0px" y="0px"
	 viewBox="0 0 100 125" style="enable-background:new 0 0 100 125;" xml:space="preserve">
<title>109all</title>
<path d="M79.7,66.2c-2.5,0.1-4.8,1.3-6.4,3.2l-4,4.8V30.4c0.3-3.6-2.4-6.7-6-7c-3.6-0.3-6.7,2.4-7,6c0,0.3,0,0.7,0,1v27.2
	c0,0.6-0.4,1-1,1c0,0,0,0-0.1,0c-0.6,0-1-0.4-1-1V22.4c0.3-3.6-2.4-6.7-6-7s-6.7,2.4-7,6c0,0.3,0,0.7,0,1v35.2c0,0.6-0.4,1-1,1
	c0,0,0,0-0.1,0c-0.6,0-1-0.4-1-1V28.4c-0.3-3.6-3.4-6.3-7-6c-3.2,0.3-5.7,2.8-6,6v29.2c0,0.3-0.1,0.5-0.3,0.7
	c-0.2,0.2-0.4,0.3-0.7,0.3H25c-0.6,0-1-0.4-1-1V38.4c0.3-3.6-2.4-6.7-6-7c-3.6-0.3-6.7,2.4-7,6c0,0.3,0,0.7,0,1v47.2
	c0,13.3,10.7,24,24,24h16.5c7.1,0,13.8-3.1,18.4-8.6l17-20.2c3.2-3.8,2.7-9.4-1.1-12.6C84.1,66.9,81.9,66.1,79.7,66.2L79.7,66.2z"/>
</svg>
