<?xml version="1.0" encoding="utf-8"?>
<!-- Generator: Adobe Illustrator 22.1.0, SVG Export Plug-In . SVG Version: 6.00 Build 0)  -->
<svg version="1.1"
	 id="Layer_1" xmlns:cc="http://creativecommons.org/ns#" xmlns:dc="http://purl.org/dc/elements/1.1/" xmlns:inkscape="http://www.inkscape.org/namespaces/inkscape" xmlns:rdf="http://www.w3.org/1999/02/22-rdf-syntax-ns#" xmlns:sodipodi="http://sodipodi.sourceforge.net/DTD/sodipodi-0.dtd" xmlns:svg="http://www.w3.org/2000/svg"
	 xmlns="http://www.w3.org/2000/svg" xmlns:xlink="http://www.w3.org/1999/xlink" x="0px" y="0px" viewBox="0 0 100 100"
	 style="enable-background:new 0 0 100 100;" xml:space="preserve">
<style type="text/css">
	.st0{fill:#0484AD;}
	.st1{fill:none;stroke:#AEB0B5;stroke-width:4;stroke-miterlimit:10;}
	.st2{font-family:'HelveticaNeue-Bold';}
	.st3{font-size:5px;}
</style>
<g>
	<path class="st0" d="M43,6.9c-1.4,0-2.7,1.3-2.9,2.4l-1.6,9c-3.5,1.3-6.7,3.1-9.6,5.4l-8.5-3.3c-1.3-0.5-2.9,0.1-3.7,1.2L8.4,35.3
		C7.7,36.5,8,38.1,9,39l6.7,6c-0.4,2.2-0.7,4.5-0.7,6.8s0.3,4.6,0.7,6.8l-6.7,6c-1.1,0.9-1.3,2.6-0.6,3.8l8.3,13.7
		c0.7,1.2,2.4,1.7,3.7,1.2l8.5-3.2c2.9,2.3,6.1,4,9.6,5.3l1.6,9c0.2,1.4,1.5,2.5,2.9,2.5h16c1.4,0,2.7-1.1,3-2.5l1.6-9
		c3.5-1.3,6.7-3.1,9.6-5.3l8.5,3.2c1.3,0.5,2.9,0,3.6-1.2l8.3-13.7c0.7-1.2,0.5-2.9-0.6-3.8l-6.7-6c0.4-2.2,0.7-4.5,0.7-6.8
		s-0.3-4.6-0.7-6.8l6.7-6c1-0.9,1.3-2.6,0.6-3.8l-8.3-13.7c-0.7-1.2-2.3-1.7-3.6-1.2l-8.5,3.3c-2.9-2.3-6.1-4.1-9.6-5.4l-1.6-9
		c-0.3-1.4-1.6-2.4-3-2.4L43,6.9L43,6.9z M45.6,12.8h11l1.5,8c0.2,1.1,1,2,2.1,2.3c4,1.3,7.6,3.4,10.7,6.1c0.8,0.7,2,0.9,3.1,0.5
		l7.6-2.9l5.7,9.4l-6.1,5.4c-0.8,0.7-1.2,1.9-0.9,3c0.6,2.3,0.8,4.7,0.8,7.2s-0.3,4.9-0.8,7.2c-0.3,1,0.1,2.2,0.9,2.9l6.1,5.5
		l-5.8,9.4l-7.6-2.9c-1-0.4-2.2-0.2-3.1,0.5c-3.1,2.7-6.7,4.8-10.7,6.1c-1,0.3-1.9,1.2-2.1,2.3l-1.5,8.1h-11L44,82.8
		c-0.2-1.1-1-2-2.1-2.3c-4-1.3-7.6-3.4-10.7-6.1c-0.8-0.7-2-0.9-3.1-0.5l-7.7,2.9l-5.7-9.4l6.1-5.4c0.8-0.7,1.2-1.9,0.9-2.9
		c-0.6-2.3-0.9-4.7-0.9-7.2s0.3-4.9,0.9-7.2c0.3-1.1-0.1-2.2-0.9-3l-6.1-5.4l5.8-9.4l7.6,2.9c1,0.4,2.2,0.2,3.1-0.5
		c3.1-2.7,6.7-4.8,10.7-6.1c1-0.3,1.9-1.2,2.1-2.3C44.2,20.8,45.6,12.8,45.6,12.8z"/>
	<circle class="st1" cx="51" cy="51.8" r="20.7"/>
</g>
</svg>
