<svg xmlns="http://www.w3.org/2000/svg" viewBox="0 0 39.204 47.406"><defs><style>.a{fill:#212121;}</style></defs><path class="a" d="M118,33.791a45.592,45.592,0,0,1-.656,9.35,6.842,6.842,0,0,1-1.476,2.625,4.224,4.224,0,0,1-2.625,1.148q-4.921.492-14.763.492t-14.763-.492a5.955,5.955,0,0,1-2.789-1.148,4.262,4.262,0,0,1-1.476-2.625,43.6,43.6,0,0,1-.656-9.35,45.593,45.593,0,0,1,.656-9.35,6.843,6.843,0,0,1,1.476-2.625A5.52,5.52,0,0,1,83.721,20.5q4.921-.492,14.763-.492t14.763.492a4.891,4.891,0,0,1,2.789,1.312,4.262,4.262,0,0,1,1.476,2.625A66.217,66.217,0,0,1,118,33.791ZM87.166,27.23h2.789V24.769h-8.2V27.23h2.789V42.321h2.625V27.23ZM91.595,0h2.789L91.1,10.5v7.218H88.478V10.5a35.921,35.921,0,0,0-1.64-5.577c-.656-1.8-1.148-3.445-1.8-4.921h2.789l1.8,6.889Zm3.117,42.321h2.461V29.2h-2.3V39.2c-.492.82-.984,1.148-1.476,1.148a.435.435,0,0,1-.492-.492V29.2h-2.3V39.533a6.76,6.76,0,0,0,.164,1.968,1.319,1.319,0,0,0,1.476.984,3.4,3.4,0,0,0,2.625-1.64v1.476Zm6.725-33.463v4.593a5.069,5.069,0,0,1-.82,3.117,3.619,3.619,0,0,1-5.577,0,5.069,5.069,0,0,1-.82-3.117V8.858a5.069,5.069,0,0,1,.82-3.117,3.084,3.084,0,0,1,2.789-1.312,3.5,3.5,0,0,1,2.789,1.312A5.069,5.069,0,0,1,101.437,8.858Zm-2.461,5.085V8.366c0-1.148-.328-1.8-1.148-1.8s-1.148.656-1.148,1.8v5.577c0,1.312.328,1.8,1.148,1.8S98.976,15.091,98.976,13.943Zm7.218,24.441V33.135a10.2,10.2,0,0,0-.164-2.625,1.881,1.881,0,0,0-1.8-1.476,3.359,3.359,0,0,0-2.461,1.476V24.769h-2.3V42.321h2.3V41.009a3.359,3.359,0,0,0,2.461,1.476,1.654,1.654,0,0,0,1.8-1.476C106.03,40.517,106.194,39.7,106.194,38.384Zm-2.461-5.413v5.577c0,1.148-.328,1.8-.984,1.8A1.421,1.421,0,0,1,101.6,39.7V31.659A2.084,2.084,0,0,1,102.749,31Q103.733,31.249,103.733,32.971Zm6.561-28.378V17.88h-2.461V16.24a3.653,3.653,0,0,1-2.789,1.64,1.647,1.647,0,0,1-1.64-.984,6.76,6.76,0,0,1-.164-1.968V4.593H105.7V15.255c0,.328.164.656.492.656.492,0,.984-.328,1.476-1.148V4.593Zm4.757,33.463v-.328h-2.461v1.64q-.246.984-.984.984c-.82,0-1.148-.656-1.148-1.8v-2.3h4.757V33.463a5.513,5.513,0,0,0-.656-3.117,3.084,3.084,0,0,0-2.789-1.312,3.5,3.5,0,0,0-2.789,1.312,5.069,5.069,0,0,0-.82,3.117v4.593a5.069,5.069,0,0,0,.82,3.117,3.5,3.5,0,0,0,2.789,1.312,2.874,2.874,0,0,0,2.789-1.476,2.646,2.646,0,0,0,.492-1.476S115.052,39.04,115.052,38.056Zm-2.3-5.085v1.148h-2.461V32.971c0-1.148.328-1.8,1.148-1.8C112.427,31.167,112.755,31.823,112.755,32.971Z" transform="translate(-78.8)"/></svg>