<svg xmlns="http://www.w3.org/2000/svg" viewBox="0 0 41.829 33.627"><defs><style>.a{fill:#212121;}</style></defs><path class="a" d="M76.029,9.109a15.713,15.713,0,0,1-4.265,4.429v1.148a24.975,24.975,0,0,1-.984,6.889,21.824,21.824,0,0,1-3.117,6.561,22.707,22.707,0,0,1-4.921,5.577,21.645,21.645,0,0,1-6.889,3.937,24.961,24.961,0,0,1-21.653-2.3c.656,0,1.312.164,2.132.164A16.771,16.771,0,0,0,46.995,31.91a8.84,8.84,0,0,1-4.921-1.64A7.805,7.805,0,0,1,39.121,26a6.154,6.154,0,0,0,1.64.164,11.076,11.076,0,0,0,2.3-.328,7.777,7.777,0,0,1-4.921-2.953,8.47,8.47,0,0,1-1.968-5.413v-.164a10.03,10.03,0,0,0,3.937,1.148,8.52,8.52,0,0,1-2.789-3.117,8.893,8.893,0,0,1-.984-4.1,7.947,7.947,0,0,1,1.148-4.265,25.036,25.036,0,0,0,7.874,6.4A23.172,23.172,0,0,0,55.2,16a7.986,7.986,0,0,1-.164-1.968,8.424,8.424,0,0,1,2.461-6.069A8.161,8.161,0,0,1,63.562,5.5,8.673,8.673,0,0,1,69.8,8.125a44.809,44.809,0,0,0,5.085-2.3,8.983,8.983,0,0,1-3.773,4.757A18.748,18.748,0,0,0,76.029,9.109Z" transform="translate(-34.2 -5.5)"/></svg>