<svg id="Group_34" data-name="Group 34" xmlns="http://www.w3.org/2000/svg" viewBox="0 0 239.82 47.406">
  <defs>
    <style>
      .cls-1 {
        fill: #212121;
      }
    </style>
  </defs>
  <path id="Path_204" data-name="Path 204" class="cls-1" d="M22.965,1.328V8.382h-4.1a4.176,4.176,0,0,0-3.117.984c-.656.492-.82,1.476-.82,2.789V17.24h7.71l-.984,7.874H14.927V45.29h-8.2V24.949H0V17.075H6.725V11.334a10.554,10.554,0,0,1,2.789-7.71A10.636,10.636,0,0,1,16.9,1,53.514,53.514,0,0,1,22.965,1.328Z" transform="translate(0 0.64)"/>
  <path id="Path_205" data-name="Path 205" class="cls-1" d="M76.029,9.109a15.713,15.713,0,0,1-4.265,4.429v1.148a24.975,24.975,0,0,1-.984,6.889,21.824,21.824,0,0,1-3.117,6.561,22.707,22.707,0,0,1-4.921,5.577,21.645,21.645,0,0,1-6.889,3.937,24.961,24.961,0,0,1-21.653-2.3c.656,0,1.312.164,2.132.164A16.771,16.771,0,0,0,46.995,31.91a8.84,8.84,0,0,1-4.921-1.64A7.805,7.805,0,0,1,39.121,26a6.154,6.154,0,0,0,1.64.164,11.076,11.076,0,0,0,2.3-.328,7.777,7.777,0,0,1-4.921-2.953,8.47,8.47,0,0,1-1.968-5.413v-.164a10.03,10.03,0,0,0,3.937,1.148,8.52,8.52,0,0,1-2.789-3.117,8.893,8.893,0,0,1-.984-4.1,7.947,7.947,0,0,1,1.148-4.265,25.036,25.036,0,0,0,7.874,6.4A23.172,23.172,0,0,0,55.2,16a7.986,7.986,0,0,1-.164-1.968,8.424,8.424,0,0,1,2.461-6.069A8.161,8.161,0,0,1,63.562,5.5,8.673,8.673,0,0,1,69.8,8.125a44.809,44.809,0,0,0,5.085-2.3,8.983,8.983,0,0,1-3.773,4.757A18.748,18.748,0,0,0,76.029,9.109Z" transform="translate(21.9 3.522)"/>
  <path id="Path_206" data-name="Path 206" class="cls-1" d="M118,33.791a45.592,45.592,0,0,1-.656,9.35,6.842,6.842,0,0,1-1.476,2.625,4.224,4.224,0,0,1-2.625,1.148q-4.921.492-14.763.492t-14.763-.492a5.955,5.955,0,0,1-2.789-1.148,4.262,4.262,0,0,1-1.476-2.625,43.6,43.6,0,0,1-.656-9.35,45.593,45.593,0,0,1,.656-9.35,6.843,6.843,0,0,1,1.476-2.625A5.52,5.52,0,0,1,83.721,20.5q4.921-.492,14.763-.492t14.763.492a4.891,4.891,0,0,1,2.789,1.312,4.262,4.262,0,0,1,1.476,2.625A66.217,66.217,0,0,1,118,33.791ZM87.166,27.23h2.789V24.769h-8.2V27.23h2.789V42.321h2.625V27.23ZM91.595,0h2.789L91.1,10.5v7.218H88.478V10.5a35.921,35.921,0,0,0-1.64-5.577c-.656-1.8-1.148-3.445-1.8-4.921h2.789l1.8,6.889Zm3.117,42.321h2.461V29.2h-2.3V39.2c-.492.82-.984,1.148-1.476,1.148a.435.435,0,0,1-.492-.492V29.2h-2.3V39.533a6.76,6.76,0,0,0,.164,1.968,1.319,1.319,0,0,0,1.476.984,3.4,3.4,0,0,0,2.625-1.64v1.476Zm6.725-33.463v4.593a5.069,5.069,0,0,1-.82,3.117,3.619,3.619,0,0,1-5.577,0,5.069,5.069,0,0,1-.82-3.117V8.858a5.069,5.069,0,0,1,.82-3.117,3.084,3.084,0,0,1,2.789-1.312,3.5,3.5,0,0,1,2.789,1.312A5.069,5.069,0,0,1,101.437,8.858Zm-2.461,5.085V8.366c0-1.148-.328-1.8-1.148-1.8s-1.148.656-1.148,1.8v5.577c0,1.312.328,1.8,1.148,1.8S98.976,15.091,98.976,13.943Zm7.218,24.441V33.135a10.2,10.2,0,0,0-.164-2.625,1.881,1.881,0,0,0-1.8-1.476,3.359,3.359,0,0,0-2.461,1.476V24.769h-2.3V42.321h2.3V41.009a3.359,3.359,0,0,0,2.461,1.476,1.654,1.654,0,0,0,1.8-1.476C106.03,40.517,106.194,39.7,106.194,38.384Zm-2.461-5.413v5.577c0,1.148-.328,1.8-.984,1.8A1.421,1.421,0,0,1,101.6,39.7V31.659A2.084,2.084,0,0,1,102.749,31Q103.733,31.249,103.733,32.971Zm6.561-28.378V17.88h-2.461V16.24a3.653,3.653,0,0,1-2.789,1.64,1.647,1.647,0,0,1-1.64-.984,6.76,6.76,0,0,1-.164-1.968V4.593H105.7V15.255c0,.328.164.656.492.656.492,0,.984-.328,1.476-1.148V4.593Zm4.757,33.463v-.328h-2.461v1.64q-.246.984-.984.984c-.82,0-1.148-.656-1.148-1.8v-2.3h4.757V33.463a5.513,5.513,0,0,0-.656-3.117,3.084,3.084,0,0,0-2.789-1.312,3.5,3.5,0,0,0-2.789,1.312,5.069,5.069,0,0,0-.82,3.117v4.593a5.069,5.069,0,0,0,.82,3.117,3.5,3.5,0,0,0,2.789,1.312,2.874,2.874,0,0,0,2.789-1.476,2.646,2.646,0,0,0,.492-1.476S115.052,39.04,115.052,38.056Zm-2.3-5.085v1.148h-2.461V32.971c0-1.148.328-1.8,1.148-1.8C112.427,31.167,112.755,31.823,112.755,32.971Z" transform="translate(50.46)"/>
  <path id="Path_207" data-name="Path 207" class="cls-1" d="M160.864,38.532a2.181,2.181,0,0,1-.492,1.312,1.489,1.489,0,0,1-1.148.492h-3.773a1.682,1.682,0,0,1-1.64-1.64,30.835,30.835,0,0,0-2.625-10.826,31.386,31.386,0,0,0-6.069-8.858,28.338,28.338,0,0,0-8.858-6.069,27.641,27.641,0,0,0-10.826-2.625,1.489,1.489,0,0,1-1.148-.492,1.489,1.489,0,0,1-.492-1.148V4.74a1.277,1.277,0,0,1,.492-1.148,1.489,1.489,0,0,1,1.148-.492h.164a37.447,37.447,0,0,1,13.287,3.117A36.053,36.053,0,0,1,150.2,14.09a38.962,38.962,0,0,1,7.874,11.318A49.178,49.178,0,0,1,160.864,38.532Zm-13.615,0a1.863,1.863,0,0,1-.492,1.312,1.615,1.615,0,0,1-1.312.492h-3.609a1.682,1.682,0,0,1-1.64-1.64,15.435,15.435,0,0,0-4.921-10.334A17.007,17.007,0,0,0,124.94,23.44a1.682,1.682,0,0,1-1.64-1.64V18.191a1.863,1.863,0,0,1,.492-1.312,1.489,1.489,0,0,1,1.148-.492h.164a24.308,24.308,0,0,1,14.927,6.889,22.5,22.5,0,0,1,4.757,6.889A20.348,20.348,0,0,1,147.249,38.532Zm-15.091-6.889a5.149,5.149,0,0,1,0,7.218,5.085,5.085,0,0,1-8.694-3.609,5.1,5.1,0,0,1,8.694-3.609Z" transform="translate(78.956 1.985)"/>
</svg>
