<svg xmlns="http://www.w3.org/2000/svg" viewBox="0 0 37.564 37.236"><defs><style>.a{fill:#212121;}</style></defs><path class="a" d="M160.864,38.532a2.181,2.181,0,0,1-.492,1.312,1.489,1.489,0,0,1-1.148.492h-3.773a1.682,1.682,0,0,1-1.64-1.64,30.835,30.835,0,0,0-2.625-10.826,31.386,31.386,0,0,0-6.069-8.858,28.338,28.338,0,0,0-8.858-6.069,27.641,27.641,0,0,0-10.826-2.625,1.489,1.489,0,0,1-1.148-.492,1.489,1.489,0,0,1-.492-1.148V4.74a1.277,1.277,0,0,1,.492-1.148,1.489,1.489,0,0,1,1.148-.492h.164a37.447,37.447,0,0,1,13.287,3.117A36.053,36.053,0,0,1,150.2,14.09a38.962,38.962,0,0,1,7.874,11.318A49.178,49.178,0,0,1,160.864,38.532Zm-13.615,0a1.863,1.863,0,0,1-.492,1.312,1.615,1.615,0,0,1-1.312.492h-3.609a1.682,1.682,0,0,1-1.64-1.64,15.435,15.435,0,0,0-4.921-10.334A17.007,17.007,0,0,0,124.94,23.44a1.682,1.682,0,0,1-1.64-1.64V18.191a1.863,1.863,0,0,1,.492-1.312,1.489,1.489,0,0,1,1.148-.492h.164a24.308,24.308,0,0,1,14.927,6.889,22.5,22.5,0,0,1,4.757,6.889A20.348,20.348,0,0,1,147.249,38.532Zm-15.091-6.889a5.149,5.149,0,0,1,0,7.218,5.085,5.085,0,0,1-8.694-3.609,5.1,5.1,0,0,1,8.694-3.609Z" transform="translate(-123.3 -3.1)"/></svg>