<svg version="1.1" id="Layer_1" xmlns="http://www.w3.org/2000/svg" xmlns:xlink="http://www.w3.org/1999/xlink" x="0px" y="0px"
	 viewBox="0 0 100 100" style="enable-background:new 0 0 100 100;" xml:space="preserve">
<style type="text/css">
	.st0{fill:#AEB0B5;}
	.st1{fill:#00A6D2;}
	.st2{font-family:'HelveticaNeue-Bold';}
	.st3{font-size:5px;}
</style>
<g>
	<path class="st0" d="M50,25.8c-13.3,0-24,10.8-24,24c0,13.3,10.8,24,24,24s24-10.8,24-24S63.3,25.8,50,25.8z M50,69.8
		c-11,0-19.9-8.9-19.9-19.9S39,29.9,50,29.9S70,38.9,70,49.9S61,69.8,50,69.8z"/>
	<path class="st1" d="M21.3,50c0-1.1-0.9-2.1-2.1-2.1H3.1C1.9,47.9,1,48.9,1,50s0.9,2.1,2.1,2.1h16.2C20.4,52.1,21.3,51.1,21.3,50z"
		/>
	<path class="st1" d="M96.9,47.9H80.8c-1.1,0-2.1,0.9-2.1,2.1c0,1.1,0.9,2.1,2.1,2.1h16.2c1.1,0,2.1-0.9,2.1-2.1
		S98.1,47.9,96.9,47.9z"/>
	<path class="st1" d="M50,78.7c-1.1,0-2.1,0.9-2.1,2.1V97c0,1.1,0.9,2,2.1,2s2.1-0.9,2.1-2.1V80.8C52.1,79.6,51.1,78.7,50,78.7z"/>
	<path class="st1" d="M50,21.3c1.1,0,2.1-0.9,2.1-2.1V3.1C52.1,1.9,51.1,1,50,1s-2.1,0.9-2.1,2.1v16.2C47.9,20.4,48.9,21.3,50,21.3z
		"/>
	<path class="st1" d="M26.8,70.3L15.4,81.7c-0.8,0.8-0.8,2.1,0,2.9s2.1,0.8,2.9,0l11.4-11.4c0.8-0.8,0.8-2.1,0-2.9
		S27.6,69.5,26.8,70.3z"/>
	<path class="st1" d="M73.2,29.7l11.4-11.4c0.8-0.8,0.8-2.1,0-2.9s-2.1-0.8-2.9,0L70.3,26.8c-0.8,0.8-0.8,2.1,0,2.9
		S72.4,30.5,73.2,29.7z"/>
	<path class="st1" d="M73.2,70.3c-0.8-0.8-2.1-0.8-2.9,0s-0.8,2.1,0,2.9l11.4,11.4c0.8,0.8,2.1,0.8,2.9,0s0.8-2.1,0-2.9L73.2,70.3z"
		/>
	<path class="st1" d="M26.8,29.7c0.8,0.8,2.1,0.8,2.9,0s0.8-2.1,0-2.9L18.3,15.4c-0.8-0.8-2.1-0.8-2.9,0s-0.8,2.1,0,2.9L26.8,29.7z"
		/>
</g>
</svg>
