<?xml version="1.0" encoding="utf-8"?>
<!-- Generator: Adobe Illustrator 23.0.0, SVG Export Plug-In . SVG Version: 6.00 Build 0)  -->
<svg version="1.1" id="Layer_1" xmlns="http://www.w3.org/2000/svg" xmlns:xlink="http://www.w3.org/1999/xlink" x="0px" y="0px"
	 viewBox="0 0 89.9 43.3" style="enable-background:new 0 0 89.9 43.3;" xml:space="preserve">
<style type="text/css">
	.st0{fill:#046B99;}
</style>
<g>
	<path class="st0" d="M74.7,22.3c4.5,0,8.2-4.8,8.2-9.3s-3.7-8.2-8.2-8.2s-8.2,3.7-8.2,8.2S70.2,22.3,74.7,22.3z"/>
	<path class="st0" d="M80.8,22.4c-1.6,1.2-3.6,1.9-5.7,1.9h-0.9c-2.1,0-4.1-0.7-5.7-1.9c-2.1,0.3-3.9,1.3-5.5,2.6
		c0.1,0.1,0.3,0.3,0.4,0.4c2.6,3.1,4.1,7,4.1,11c0,0.5-0.1,1-0.2,1.5c2.2,0.4,4.7,0.7,7.3,0.7c8.4,0,15.3-2.4,15.3-5.4
		C90,27.8,86,23.3,80.8,22.4z"/>
	<path class="st0" d="M15.3,22.3c4.5,0,8.2-4.8,8.2-9.3s-3.7-8.2-8.2-8.2S7.1,8.5,7.1,13C7.1,17.5,10.8,22.3,15.3,22.3z"/>
	<path class="st0" d="M26.5,25.4c0.1-0.1,0.3-0.3,0.4-0.4c-1.5-1.3-3.4-2.3-5.5-2.6c-1.6,1.2-3.6,1.9-5.7,1.9h-0.9
		c-2.1,0-4.1-0.7-5.7-1.9C4,23.3,0,27.8,0,33.2c0,3,6.9,5.4,15.3,5.4c2.7,0,5.2-0.2,7.3-0.7c-0.1-0.5-0.2-0.9-0.2-1.5
		C22.4,32.4,23.9,28.5,26.5,25.4z"/>
	<path class="st0" d="M52.9,22.6c-2,1.6-4.6,2.5-7.4,2.5h-1.1c-2.8,0-5.3-0.9-7.4-2.5c-6.7,1.1-11.8,6.9-11.8,13.8
		c0,3.8,8.8,6.9,19.7,6.9s19.7-3.1,19.7-6.9C64.7,29.5,59.6,23.7,52.9,22.6z"/>
	<path class="st0" d="M41.3,21.7c1.1,0.5,2.4,0.8,3.7,0.8s2.5-0.3,3.7-0.9c4-1.9,6.8-6.6,6.8-11.1C55.5,4.7,50.8,0,45,0
		S34.5,4.7,34.5,10.5C34.5,15.1,37.3,19.8,41.3,21.7z"/>
</g>
</svg>
