<svg xmlns="http://www.w3.org/2000/svg" viewBox="0 0 237.62 37.99" xml:space="preserve" ><defs><style>.cls-1{fill:#231f20;}.cls-2{fill:none;}</style></defs><title>Asset 1</title><g id="Layer_2" data-name="Layer 2"><g id="Layer_1-2" data-name="Layer 1"><path class="cls-1" d="M61.86,9V19.55h-2.5V9H56V6.73h9.2V9Z"/><path class="cls-1" d="M74.09,19.55V14.19H69.75v5.36h-2.5V6.73h2.5V12h4.34V6.73h2.5V19.55Z"/><path class="cls-1" d="M85.68,19.55l-2.5-5.11h-1.8v5.11H78.87V6.73h5a3.88,3.88,0,0,1,4.16,3.93A3.44,3.44,0,0,1,85.71,14l2.87,5.53ZM83.73,9H81.38v3.38h2.35a1.69,1.69,0,1,0,0-3.38Z"/><path class="cls-1" d="M90.65,19.55V6.73h2.5V19.55Z"/><path class="cls-1" d="M97.94,9v3.15H103v2.23H97.94v5.2H95.43V6.73h8.45V9Z"/><path class="cls-1" d="M111,9V19.55h-2.5V9H105.1V6.73h9.2V9Z"/><path class="cls-1" d="M123.87,19.66A6,6,0,0,1,119.19,18l1.62-1.62a4.2,4.2,0,0,0,3.1,1.08c1.48,0,2.27-.56,2.27-1.59a1.44,1.44,0,0,0-.4-1.08,1.93,1.93,0,0,0-1.13-.45l-1.55-.21A4.42,4.42,0,0,1,120.61,13a3.39,3.39,0,0,1-.91-2.52c0-2.28,1.69-3.89,4.46-3.89a5.5,5.5,0,0,1,4.14,1.5l-1.58,1.56a3.58,3.58,0,0,0-2.63-.88c-1.33,0-2,.74-2,1.62a1.23,1.23,0,0,0,.38.92,2.19,2.19,0,0,0,1.19.51l1.51.21a4.26,4.26,0,0,1,2.45,1,3.62,3.62,0,0,1,1,2.72C128.63,18.26,126.56,19.66,123.87,19.66Z"/><path class="cls-1" d="M138.27,19.55l-.75-2.27H133l-.77,2.27h-2.61l4.66-12.82h2l4.69,12.82Zm-3-9-1.62,4.67h3.18Z"/><path class="cls-1" d="M144.72,19.55h-1.87L138.61,6.73h2.6l2.57,8.36,2.58-8.36H149Z"/><path class="cls-1" d="M150.26,19.55V6.73h2.5V19.55Z"/><path class="cls-1" d="M163.33,19.55l-5.08-7.87v7.87h-2.5V6.73H158l5.08,7.85V6.73h2.5V19.55Z"/><path class="cls-1" d="M176.45,18.2a4.8,4.8,0,0,1-3.62,1.46,4.71,4.71,0,0,1-3.45-1.4,3.77,3.77,0,0,1-1-1.93,18,18,0,0,1-.21-3.19,17.93,17.93,0,0,1,.21-3.18,3.69,3.69,0,0,1,1-1.93,4.68,4.68,0,0,1,3.45-1.41,4.6,4.6,0,0,1,4.83,4.11h-2.52a2.18,2.18,0,0,0-2.31-1.87,2,2,0,0,0-1.6.68c-.47.6-.61,1.06-.61,3.6s.11,3,.61,3.62a2,2,0,0,0,1.6.67,2.34,2.34,0,0,0,1.79-.72,2.57,2.57,0,0,0,.57-1.71v-.49h-2.36V12.42h4.85v1.87A5.09,5.09,0,0,1,176.45,18.2Z"/><path class="cls-1" d="M183.54,19.66A6,6,0,0,1,178.86,18l1.62-1.62a4.2,4.2,0,0,0,3.1,1.08c1.48,0,2.27-.56,2.27-1.59a1.44,1.44,0,0,0-.4-1.08,1.93,1.93,0,0,0-1.13-.45l-1.55-.21A4.42,4.42,0,0,1,180.28,13a3.39,3.39,0,0,1-.91-2.52c0-2.28,1.69-3.89,4.46-3.89A5.5,5.5,0,0,1,188,8.12l-1.58,1.56a3.58,3.58,0,0,0-2.63-.88c-1.33,0-2,.74-2,1.62a1.23,1.23,0,0,0,.38.92,2.19,2.19,0,0,0,1.19.51l1.51.21a4.26,4.26,0,0,1,2.45,1,3.62,3.62,0,0,1,1,2.72C188.3,18.26,186.23,19.66,183.54,19.66Z"/><path class="cls-1" d="M199.64,14.73h-2.47v4.82h-2.5V6.73h5a4,4,0,0,1,4.23,4A4,4,0,0,1,199.64,14.73ZM199.51,9h-2.34v3.51h2.34a1.7,1.7,0,0,0,1.85-1.75A1.7,1.7,0,0,0,199.51,9Z"/><path class="cls-1" d="M206,19.55V6.73h2.5V17.32h5.82v2.23Z"/><path class="cls-1" d="M223.61,19.55l-.76-2.27H218.3l-.77,2.27h-2.61l4.66-12.82h2l4.68,12.82Zm-3-9L219,15.18h3.19Z"/><path class="cls-1" d="M235.38,19.55l-5.07-7.87v7.87H227.8V6.73H230l5.07,7.85V6.73h2.51V19.55Z"/><path class="cls-1" d="M56.78,37.55V26.87H58.4V36.1h5.14v1.45Z"/><path class="cls-1" d="M71.13,36.5a3.83,3.83,0,0,1-2.82,1.14,3.78,3.78,0,0,1-2.8-1.14c-1.05-1-1-2.23-1-4.29s0-3.24,1-4.29a3.82,3.82,0,0,1,2.8-1.14,3.87,3.87,0,0,1,2.82,1.14c1.05,1,1,2.24,1,4.29S72.18,35.45,71.13,36.5ZM69.9,28.9a2.25,2.25,0,0,0-3.18,0c-.52.57-.63,1.17-.63,3.31s.11,2.75.63,3.32a2.25,2.25,0,0,0,3.18,0c.53-.57.63-1.17.63-3.32S70.43,29.47,69.9,28.9Z"/><path class="cls-1" d="M79.58,37.55l-.74-2.14H74.63l-.74,2.14H72.17l3.91-10.68h1.31L81.3,37.55Zm-2.81-8.26L75.11,34h3.28Z"/><path class="cls-1" d="M89.22,37.55,84.29,30v7.51H82.67V26.87h1.48l4.94,7.5v-7.5h1.62V37.55Z"/><path class="cls-1" d="M100.88,33.35H98.45v4.2H96.83V26.87h4a3.24,3.24,0,1,1,0,6.48Zm-.09-5H98.45v3.55h2.34a1.78,1.78,0,1,0,0-3.55Z"/><path class="cls-1" d="M110.91,37.55l-.73-2.14H106l-.73,2.14H103.5l3.92-10.68h1.3l3.92,10.68Zm-2.8-8.26L106.44,34h3.29Z"/><path class="cls-1" d="M115.25,33.16v4.39h-1.62V33.16l-3.2-6.29h1.77l2.24,4.7,2.23-4.7h1.77Z"/><path class="cls-1" d="M127.05,37.55V30.41l-2.46,5.21h-1.2l-2.52-5.21v7.14h-1.62V26.87h1.62L124,33.52l3.06-6.65h1.62V37.55Z"/><path class="cls-1" d="M131.31,37.55V26.87h6.83v1.46h-5.21v3.12h4.44v1.44h-4.44V36.1h5.21v1.45Z"/><path class="cls-1" d="M146.76,37.55,141.83,30v7.51h-1.62V26.87h1.48l4.94,7.5v-7.5h1.62V37.55Z"/><path class="cls-1" d="M154.52,28.33v9.22H152.9V28.33H150V26.87h7.5v1.46Z"/><path class="cls-1" d="M166.08,37.64a3.83,3.83,0,0,1-2.8-1.14c-1.05-1-1-2.23-1-4.29s0-3.24,1-4.29a3.87,3.87,0,0,1,2.8-1.14,3.67,3.67,0,0,1,3.81,3.29h-1.65a2.21,2.21,0,0,0-3.73-1.19c-.53.57-.65,1.19-.65,3.33s.12,2.76.65,3.33a2.1,2.1,0,0,0,1.57.65,2.16,2.16,0,0,0,2.18-1.83h1.63A3.68,3.68,0,0,1,166.08,37.64Z"/><path class="cls-1" d="M178.19,36.5a4,4,0,0,1-5.63,0c-1.05-1-1-2.23-1-4.29s0-3.24,1-4.29a4,4,0,0,1,5.63,0c1.05,1,1,2.24,1,4.29S179.24,35.45,178.19,36.5ZM177,28.9a2.25,2.25,0,0,0-3.18,0c-.53.57-.63,1.17-.63,3.31s.1,2.75.63,3.32a2.25,2.25,0,0,0,3.18,0c.52-.57.63-1.17.63-3.32S177.48,29.47,177,28.9Z"/><path class="cls-1" d="M184.83,37.64A3.62,3.62,0,0,1,181,34V26.87h1.62v7a2.21,2.21,0,1,0,4.42,0v-7h1.62V34A3.63,3.63,0,0,1,184.83,37.64Z"/><path class="cls-1" d="M195.21,33.35h-2.43v4.2h-1.62V26.87h4.05a3.24,3.24,0,1,1,0,6.48Zm-.09-5h-2.34v3.55h2.34a1.78,1.78,0,1,0,0-3.55Z"/><path class="cls-1" d="M206.72,36.5a4,4,0,0,1-5.63,0c-1.05-1-1-2.23-1-4.29s0-3.24,1-4.29a4,4,0,0,1,5.63,0c1.05,1,1,2.24,1,4.29S207.77,35.45,206.72,36.5Zm-1.23-7.6a2.25,2.25,0,0,0-3.18,0c-.53.57-.63,1.17-.63,3.31s.1,2.75.63,3.32a2.25,2.25,0,0,0,3.18,0c.52-.57.63-1.17.63-3.32S206,29.47,205.49,28.9Z"/><path class="cls-1" d="M216.54,37.55,211.61,30v7.51H210V26.87h1.48l4.94,7.5v-7.5H218V37.55Z"/><polygon class="cls-1" points="18.03 3.33 18.43 2.1 17.37 1.33 18.68 1.33 19.08 0.09 19.48 1.33 20.79 1.33 19.73 2.1 20.14 3.33 19.08 2.57 18.03 3.33"/><polygon class="cls-1" points="12.69 6.51 13.09 5.27 12.04 4.51 13.34 4.51 13.74 3.27 14.15 4.51 15.45 4.51 14.4 5.27 14.8 6.51 13.74 5.75 12.69 6.51"/><polygon class="cls-1" points="8.37 10.15 8.78 8.91 7.72 8.14 9.03 8.14 9.43 6.9 9.83 8.14 11.14 8.14 10.08 8.91 10.48 10.15 9.43 9.38 8.37 10.15"/><polygon class="cls-1" points="4.85 14.8 5.26 13.56 4.2 12.8 5.51 12.8 5.91 11.56 6.31 12.8 7.62 12.8 6.56 13.56 6.96 14.8 5.91 14.04 4.85 14.8"/><polygon class="cls-1" points="2.24 19.91 2.65 18.67 1.59 17.91 2.9 17.91 3.3 16.67 3.7 17.91 5 17.91 3.95 18.67 4.35 19.91 3.3 19.15 2.24 19.91"/><polygon class="cls-1" points="0.88 25.82 1.28 24.58 0.23 23.81 1.53 23.81 1.93 22.57 2.34 23.81 3.64 23.81 2.59 24.58 2.99 25.82 1.93 25.05 0.88 25.82"/><polygon class="cls-1" points="0.65 31.84 1.05 30.59 0 29.83 1.3 29.83 1.71 28.59 2.11 29.83 3.42 29.83 2.36 30.59 2.76 31.84 1.71 31.07 0.65 31.84"/><polygon class="cls-1" points="1.9 37.85 2.3 36.62 1.25 35.85 2.55 35.85 2.96 34.61 3.36 35.85 4.66 35.85 3.61 36.62 4.01 37.85 2.96 37.09 1.9 37.85"/><path class="cls-1" d="M35,24a.68.68,0,0,0-.68-.71h-2v.34h1.42V24H35Z"/><path class="cls-1" d="M50.28,29.55a4.16,4.16,0,0,0-3.35-2.25,4.54,4.54,0,0,0-4.07-2.37H41.13a4.88,4.88,0,0,0-3.85-2.2A6.4,6.4,0,0,0,34.7,21a2.46,2.46,0,0,1-.38-1.35c0-3.5,4.17-5.29,4.17-8.46s-3.81-4.86-6.22-5c0,0,3.34.46,3.34,2.23s-5.78,3.29-5.78,7.33a7.06,7.06,0,0,0,1.73,4.79c-1.75-.09-5.65-.67-5.65-4C25.91,12.2,31,10,31,6.14S26.35.2,23.4,0c0,0,4.08.57,4.08,2.74s-7.06,4-7.06,9c0,4.73,3.09,9.14,11.86,9.51h.3A4.84,4.84,0,0,1,36.63,24c3.37,0,2.58,2.5,2.58,2.5-11.43,0-13.29,11.3-13.29,11.3h7.34s.68-9.72,10.87-9.72a1.83,1.83,0,0,0-1.47-2.38h.46A4.12,4.12,0,0,1,46.47,28c2.67,0,2,2,2,2-9,0-10.17,7.87-10.17,7.87h6s0-6.28,8-6.28c0,0,.62-2-2-2"/><rect class="cls-2" width="52.38" height="37.99"/></g></g></svg>
