<svg xmlns="http://www.w3.org/2000/svg" viewBox="0 0 89.9 43.3"><defs><style>.cls-1{fill:#046b99;}</style></defs><title>Asset 1</title><g id="Layer_2" data-name="Layer 2"><g id="Layer_1-2" data-name="Layer 1"><path class="cls-1" d="M74.7,22.3c4.5,0,8.2-4.8,8.2-9.3a8.2,8.2,0,0,0-16.4,0C66.5,17.5,70.2,22.3,74.7,22.3Z"/><path class="cls-1" d="M80.8,22.4a9.52,9.52,0,0,1-5.7,1.9h-.9a9.52,9.52,0,0,1-5.7-1.9A11.25,11.25,0,0,0,63,25l.4.4a17.22,17.22,0,0,1,4.1,11,7.72,7.72,0,0,1-.2,1.5,41.11,41.11,0,0,0,7.3.7c8.4,0,15.3-2.4,15.3-5.4A10.87,10.87,0,0,0,80.8,22.4Z"/><path class="cls-1" d="M15.3,22.3c4.5,0,8.2-4.8,8.2-9.3A8.2,8.2,0,0,0,7.1,13C7.1,17.5,10.8,22.3,15.3,22.3Z"/><path class="cls-1" d="M26.5,25.4l.4-.4a10.85,10.85,0,0,0-5.5-2.6,9.52,9.52,0,0,1-5.7,1.9h-.9a9.52,9.52,0,0,1-5.7-1.9A11.05,11.05,0,0,0,0,33.2c0,3,6.9,5.4,15.3,5.4a32.3,32.3,0,0,0,7.3-.7,6.8,6.8,0,0,1-.2-1.5A17.22,17.22,0,0,1,26.5,25.4Z"/><path class="cls-1" d="M52.9,22.6a11.8,11.8,0,0,1-7.4,2.5H44.4A12,12,0,0,1,37,22.6,14.06,14.06,0,0,0,25.2,36.4c0,3.8,8.8,6.9,19.7,6.9s19.7-3.1,19.7-6.9A13.88,13.88,0,0,0,52.9,22.6Z"/><path class="cls-1" d="M41.3,21.7a9.09,9.09,0,0,0,3.7.8,8.08,8.08,0,0,0,3.7-.9,12.74,12.74,0,0,0,6.8-11.1,10.5,10.5,0,0,0-21,0A12.77,12.77,0,0,0,41.3,21.7Z"/></g></g></svg>