<svg xmlns="http://www.w3.org/2000/svg" viewBox="0 0 576 576"><defs><style>.cls-1{fill:#fff;}</style></defs><title>Asset 2</title><g id="Layer_2" data-name="Layer 2"><g id="plus"><path class="cls-1" d="M288,0C128.94,0,0,128.94,0,288S128.94,576,288,576,576,447.06,576,288,447.06,0,288,0ZM448.7,289.66a15,15,0,0,1-15,15H301.62V436.74a15,15,0,0,1-15,15h-2.5a15.05,15.05,0,0,1-15-15V304.66H137.05a15,15,0,0,1-15-15v-2.5a15,15,0,0,1,15-15H269.12V140.08a15.05,15.05,0,0,1,15-15h2.5a15,15,0,0,1,15,15V272.16H433.7a15,15,0,0,1,15,15Z"/></g></g></svg>